<?xml version="1.0" encoding="UTF-8" standalone="no"?>
<!-- Created with Inkscape (http://www.inkscape.org/) -->

<svg
   width="128"
   height="45"
   viewBox="0 0 33.866666 11.90625"
   version="1.1"
   id="svg1"
   inkscape:export-filename="0.png"
   inkscape:export-xdpi="96"
   inkscape:export-ydpi="96"
   inkscape:version="1.3.2 (091e20ef0f, 2023-11-25, custom)"
   sodipodi:docname="broken-ships.svg"
   xmlns:inkscape="http://www.inkscape.org/namespaces/inkscape"
   xmlns:sodipodi="http://sodipodi.sourceforge.net/DTD/sodipodi-0.dtd"
   xmlns="http://www.w3.org/2000/svg"
   xmlns:svg="http://www.w3.org/2000/svg">
  <sodipodi:namedview
     id="namedview1"
     pagecolor="#ffffff"
     bordercolor="#000000"
     borderopacity="0.25"
     inkscape:showpageshadow="2"
     inkscape:pageopacity="0.0"
     inkscape:pagecheckerboard="0"
     inkscape:deskcolor="#d1d1d1"
     inkscape:document-units="px"
     inkscape:zoom="3.6183679"
     inkscape:cx="89.128582"
     inkscape:cy="54.168069"
     inkscape:window-width="1920"
     inkscape:window-height="1163"
     inkscape:window-x="0"
     inkscape:window-y="0"
     inkscape:window-maximized="1"
     inkscape:current-layer="layer1" />
  <defs
     id="defs1" />
  <g
     inkscape:label="Layer 1"
     inkscape:groupmode="layer"
     id="layer1">
    <g
       id="g29"
       transform="translate(-16.475071,23.407778)">
      <path
         style="fill:#4d4d4d;fill-opacity:1;stroke-width:0.0697539"
         d="m -16.680482,-4.25423 0.0026,0.166008 c 0,0 -0.775293,0.06279 -0.469029,-0.06992 0.234342,-0.101545 0.466416,-0.09609 0.466416,-0.09609 z"
         id="path5"
         sodipodi:nodetypes="ccscc" />
      <path
         style="fill:#666666;stroke-width:0.0697539"
         d="m -20.372917,-6.567803 0.503221,1.506435 0.414448,-0.03425 0.194331,1.100853 0.465616,0.03989 0.351865,-0.952186 c 0,0 3.099495,0.290628 4.122589,0.956617 0.452164,0.29434 5.37855,0.117211 10.150462,0.08655 6.025296,-0.03871 12.116115,0.01832 12.116115,0.01832 l 0.398869,0.310633 1.882094,0.284243 1.243726,-0.02062 0.162922,-0.177736 0.06713,-0.169695 -0.03571,-0.153877 c -1.059887,-1.831428 2.27462,-3.578203 1.778242,-3.718146 C 12.594914,-7.729941 4.246451,-6.79143 4.246451,-6.79143 L 3.853223,-7.902491 4.046749,-8.000801 3.862356,-8.170826 2.963354,-8.410952 2.784199,-9.500793 1.301534,-9.647715 l -1.304181,-3.942092 -0.547808,0.01732 1.176329,3.972714 -0.583666,0.132282 -0.120869,0.876306 H -0.41508 l 0.07145,1.049549 h -0.446414 l -0.273835,-1.708288 -1.687608,-0.01358 -0.421298,1.871195 -0.503488,-0.0011 -0.153368,0.577489 -0.583128,0.02726 -0.605155,-2.434042 -2.56955,0.304187 -0.04217,0.458096 -0.874423,0.03734 -0.134568,0.348238 -0.858979,0.216222 -0.516113,0.386109 -4.836794,0.05144 -0.451246,1.066738 z"
         id="path12"
         sodipodi:nodetypes="ccccccsscccccccsccccccccccccccccccccccccccccccc" />
      <path
         id="path13"
         style="opacity:0.893555;fill:#ff0000;stroke-width:0.0697539"
         d="m 11.581476,-5.127506 -31.036558,0.03229 0.194141,1.100396 0.465662,0.03992 0.351903,-0.952169 c 0,0 3.099474,0.290676 4.122568,0.956664 0.452163,0.29434 5.378519,0.11717 10.150425,0.08651 6.025292,-0.03871 12.116071,0.01839 12.116071,0.01839 l 0.398906,0.310623 1.882131,0.284193 1.243718,-0.02057 0.162941,-0.17779 0.06703,-0.169753 -0.03569,-0.153813 c 0,0 -0.33972,-0.535056 -0.08324,-1.354889 z m -31.042416,0.03242 -0.419885,4.22e-4 0.01117,0.03324 z" />
      <path
         id="path14"
         style="opacity:0.893555;fill:#800000;stroke-width:0.0697539"
         d="m -14.620124,-4.107763 c 0.110765,0.05022 0.214272,0.101996 0.299316,0.157355 0.452163,0.29434 5.378524,0.11717 10.150425,0.08651 6.025286,-0.03871 12.116071,0.01839 12.116071,0.01839 l 0.398906,0.310623 1.882131,0.284193 c 0,0 0.865591,0.149537 1.243718,-0.02057 0.07331,-0.03298 0.162941,-0.17779 0.162941,-0.17779 0,0 0.06253,-0.109084 0.06703,-0.169753 0.0039,-0.05249 -0.03569,-0.153813 -0.03569,-0.153813 0,0 -0.05834,-0.09727 -0.108585,-0.264847 z"
         sodipodi:nodetypes="csscccscsccc" />
      <path
         id="path15"
         style="opacity:0.893555;fill:#999999;stroke-width:0.0697539"
         d="m -0.002582,-13.589804 -0.547814,0.0173 1.176279,3.972706 -0.583645,0.132287 -0.120843,0.876284 h -0.336509 l 0.07153,1.049579 h -0.446451 l -0.27384,-1.70829 -1.687582,-0.01349 -0.421384,1.871095 -0.503399,-9.49e-4 -0.153405,0.577377 -0.583099,0.02725 -0.605171,-2.434031 -2.569588,0.304219 -0.0421,0.45817 -0.874513,0.03733 -0.134467,0.348225 -0.858982,0.21621 -0.516206,0.386099 -4.836728,0.0515 -0.450893,1.062662 2.369807,0.3598 c 5.576056,-0.60426 11.918129,0.01482 17.178002,-0.792936 L 3.85323,-7.902536 4.046686,-8.000766 3.862357,-8.170791 2.96332,-8.410979 2.784168,-9.500748 1.301487,-9.647749 Z"
         sodipodi:nodetypes="cccccccccccccccccccccccccccccccc" />
      <path
         id="rect16"
         style="fill:#ef0b0b;stroke-width:0.0697539"
         d="m -16.694971,-4.9733491 h 0.192795 v 0.8847446 h -0.192795 z" />
      <path
         id="rect17"
         style="fill:#ef0b0b;stroke-width:0.0697539"
         transform="rotate(-6.5534215)"
         d="m -16.05312,-6.0815825 h 1.83283 v 0.081131 h -1.83283 z" />
      <path
         id="ellipse17"
         style="fill:#4d4d4d;stroke-width:0.0697539"
         d="m -17.009906,-4.2909398 a 0.07735326,0.16820337 0 0 1 -0.07735,0.1682034 0.07735326,0.16820337 0 0 1 -0.07735,-0.1682034 0.07735326,0.16820337 0 0 1 0.07735,-0.1682034 0.07735326,0.16820337 0 0 1 0.07735,0.1682034 z" />
      <path
         id="ellipse18"
         style="fill:#4d4d4d;stroke-width:0.0697539"
         d="m -17.003123,-3.9516642 a 0.07735326,0.16820337 0 0 1 -0.07735,0.1682034 0.07735326,0.16820337 0 0 1 -0.07735,-0.1682034 0.07735326,0.16820337 0 0 1 0.07735,-0.1682034 0.07735326,0.16820337 0 0 1 0.07735,0.1682034 z" />
      <path
         style="fill:#333333;fill-opacity:1;stroke-width:0.0697539"
         d="m 0.838765,-8.726362 v 0.792668 h 1.348796 l -0.06457,-0.532438 z"
         id="path18" />
      <path
         id="rect18"
         style="fill:#949494;stroke-width:0.0485031"
         d="M -0.99434137,-13.758332 H 1.0639634 v 0.220887 h -2.05830477 z" />
      <path
         id="path19"
         style="opacity:0.903255;fill:#666666;fill-opacity:1;stroke-width:0.0697539"
         d="m -2.751462,-9.263424 -0.421384,1.871095 -0.503399,-9.49e-4 -0.04374,0.164712 1.375065,-0.131872 0.167248,-1.894466 z"
         sodipodi:nodetypes="ccccccc" />
      <path
         id="path20"
         style="opacity:0.903255;fill:#666666;fill-opacity:1;stroke-width:0.0697539"
         d="m 0.311855,-9.52868 -0.269617,0.06117 -0.120843,0.876284 h -0.336509 l 0.06431,0.942768 0.389913,0.121116 z" />
      <path
         id="path21"
         style="opacity:0.903255;fill:#666666;fill-opacity:1;stroke-width:0.0697539"
         d="m -5.01792,-9.222689 -2.569588,0.30422 -0.0421,0.458169 -0.874513,0.03733 -0.134467,0.348225 -0.858982,0.21621 -0.516206,0.386099 -4.836728,0.0515 -0.153405,0.36253 4.78523,-0.14414 1.602979,-0.671791 1.138134,-0.39005 0.250542,-0.383238 2.261826,-0.363075 z" />
      <path
         id="rect21"
         style="opacity:0.903255;fill:#b3b3b3;stroke-width:0.0697539"
         d="m -5.6078784,-8.2462482 h 0.073426 c 0.090106,0 0.1626471,0.072541 0.1626471,0.1626471 v 0.1559284 c 0,0.090106 -0.072541,0.1626471 -0.1626471,0.1626471 h -0.073426 c -0.090106,0 -0.1626471,-0.072541 -0.1626471,-0.1626471 v -0.1559284 c 0,-0.090107 0.072541,-0.1626471 0.1626471,-0.1626471 z" />
      <path
         id="rect22"
         style="opacity:0.903255;fill:#b3b3b3;stroke-width:0.0697539"
         d="m -6.1659075,-8.2462482 h 0.073426 c 0.090106,0 0.1626471,0.072541 0.1626471,0.1626471 v 0.1559284 c 0,0.090106 -0.072541,0.1626471 -0.1626471,0.1626471 h -0.073426 c -0.090107,0 -0.1626471,-0.072541 -0.1626471,-0.1626471 v -0.1559284 c 0,-0.090107 0.072541,-0.1626471 0.1626471,-0.1626471 z" />
      <path
         id="rect23"
         style="opacity:0.903255;fill:#b3b3b3;stroke-width:0.0697539"
         d="m -6.7239367,-8.2462482 h 0.073426 c 0.090107,0 0.1626471,0.072541 0.1626471,0.1626471 v 0.1559284 c 0,0.090106 -0.072541,0.1626471 -0.1626471,0.1626471 h -0.073426 c -0.090107,0 -0.1626471,-0.072541 -0.1626471,-0.1626471 v -0.1559284 c 0,-0.090107 0.072541,-0.1626471 0.1626471,-0.1626471 z" />
      <path
         id="rect24"
         style="opacity:0.903255;fill:#b3b3b3;stroke-width:0.0697539"
         d="m -1.5621478,-8.2462482 h 0.073426 c 0.090107,0 0.1626471,0.072541 0.1626471,0.1626471 v 0.1559284 c 0,0.090106 -0.072541,0.1626471 -0.1626471,0.1626471 h -0.073426 c -0.090107,0 -0.1626471,-0.072541 -0.1626471,-0.1626471 v -0.1559284 c 0,-0.090107 0.072541,-0.1626471 0.1626471,-0.1626471 z" />
    </g>
    <g
       id="g70"
       transform="matrix(0.94980208,0.18195131,-0.18814638,0.982141,-25.490756,17.855455)"
       inkscape:export-filename="2.png"
       inkscape:export-xdpi="96"
       inkscape:export-ydpi="96">
      <path
         id="path34"
         style="fill:#ef0b0b;stroke-width:0.0697539"
         d="m -9.280393,13.975084 c -0.023852,0.03693 -0.047987,0.07365 -0.07183,0.110587 -0.00795,0.01367 -0.015293,0.02768 -0.023254,0.04134 -0.023687,0.03522 -0.038424,0.05539 -0.056327,0.08216 v 0.04444 c 0.045068,-0.08794 0.099592,-0.182973 0.151412,-0.278536 z" />
      <g
         id="g67"
         transform="translate(4.8061184,1.6723084)">
        <path
           id="path30"
           style="fill:#666666;stroke-width:0.0697539"
           d="M 6.4706074,5.4364216 5.9326558,5.5418415 7.7325459,9.2733967 7.1780578,9.4976724 7.1997619,10.382373 6.8674824,10.436633 7.1067443,11.46086 6.6664611,11.53269 6.1217915,9.8904133 4.4536763,10.148795 4.3389546,12.063407 3.8418274,12.143506 3.783433,12.737785 3.2118917,12.858708 2.2476094,10.611299 c -0.3522881,1.285598 -0.7489927,2.558122 -1.1498006,3.829224 -0.11872437,0.346655 -0.21146728,0.702682 -0.33589678,1.047481 -0.0238373,0.06606 -0.0506268,0.131355 -0.0795817,0.195337 -0.008488,0.01875 -0.0146454,0.03993 -0.0217041,0.06046 0.18552609,0.07178 0.21715497,0.323227 -0.0744141,0.545186 -6.154e-4,4.68e-4 -9.3029e-4,0.0011 -0.00155,0.0015 C 1.6650577,16.098566 2.7948901,15.897757 3.9219258,15.706596 9.8624839,14.698968 15.882953,13.774931 15.882953,13.774931 l 0.4439,0.242362 1.903243,-0.0217 1.224215,-0.220658 0.132292,-0.201538 0.03876,-0.178801 -0.05994,-0.145727 c -1.340737,-1.637038 1.669462,-3.8980918 1.157036,-3.956348 -0.875519,-0.099602 -8.964311,2.17041 -8.964311,2.17041 l -0.566891,-1.033529 0.175184,-0.12764 -0.209807,-0.13901 -0.925525,-0.09198 -0.3519161,-1.0464477 -1.4872477,0.093534 z" />
        <path
           id="path31"
           style="opacity:0.893555;fill:#ff0000;stroke-width:0.0697539"
           d="M 19.265175,11.924914 0.94226277,14.931449 c -0.0568694,0.186721 -0.11413643,0.373073 -0.18035075,0.556555 -0.0238373,0.06606 -0.0506268,0.131355 -0.0795817,0.195337 -0.008488,0.01875 -0.0146454,0.03993 -0.0217041,0.06046 0.18552609,0.07178 0.21715497,0.323227 -0.0744141,0.545186 -6.154e-4,4.68e-4 -9.3029e-4,0.0011 -0.00155,0.0015 C 1.6650543,16.098567 2.7948916,15.897757 3.9219258,15.706596 9.8624799,14.698969 15.882953,13.774931 15.882953,13.774931 l 0.4439,0.242879 1.903243,-0.02222 1.224215,-0.220658 0.132292,-0.201538 0.03876,-0.178801 -0.05994,-0.145727 c 0,0 -0.421472,-0.473534 -0.30024,-1.323951 z" />
        <path
           id="path32"
           style="opacity:0.893555;fill:#800000;stroke-width:0.0697539"
           d="M 19.415554,13.004952 0.79653523,15.988749 c -0.0150075,0.09334 -0.0779631,0.199481 -0.21032308,0.30024 -6.154e-4,4.68e-4 -9.3029e-4,0.0011 -0.00155,0.0015 C 1.665054,16.098571 2.7948928,15.897757 3.9219258,15.706596 9.8624741,14.69897 15.882953,13.774931 15.882953,13.774931 l 0.4439,0.242879 1.903243,-0.02222 c 0,0 0.878383,0.0081 1.224215,-0.220658 0.06705,-0.04434 0.132292,-0.201538 0.132292,-0.201538 0,0 0.04408,-0.118198 0.03876,-0.178801 -0.0046,-0.05243 -0.05994,-0.145727 -0.05994,-0.145727 0,0 -0.07331,-0.0866 -0.149861,-0.243913 z" />
        <path
           id="path33"
           style="opacity:0.893555;fill:#999999;stroke-width:0.0697539"
           d="M 6.470456,5.4366132 5.932649,5.5420863 7.7326053,9.273467 7.178064,9.4979041 7.1997278,10.382374 6.8676971,10.4365 7.1069454,11.460901 6.6667883,11.532654 6.1215991,9.8905545 4.4536733,10.14884 4.3385497,12.063511 3.8416123,12.143472 3.7835141,12.737788 3.2120947,12.858689 2.2477604,10.611062 C 1.9678183,11.632648 1.6574175,12.645571 1.3409909,13.656404 4.9542767,13.030621 8.6077998,12.485912 11.758283,11.462905 L 11.191391,10.429607 11.366345,10.301606 11.15691,10.163488 10.231302,10.070909 9.8789718,9.0241029 8.3919946,9.1172824 Z" />
        <path
           style="fill:#333333;fill-opacity:1;stroke-width:0.0697539"
           d="m 8.0835082,10.101366 0.1275342,0.782341 1.3312239,-0.217011 -0.149394,-0.515113 z"
           id="path38" />
        <path
           id="path39"
           style="fill:#949494;stroke-width:0.0485031"
           d="M 5.4646779,5.4298853 7.496167,5.0987197 7.531706,5.316729 5.5002169,5.6478946 Z" />
        <path
           id="path40"
           style="opacity:0.903255;fill:#666666;fill-opacity:1;stroke-width:0.0697539"
           d="M 4.4536456,10.148941 4.3387964,12.063457 3.841803,12.143513 3.8251338,12.313117 5.1610672,11.961725 5.0213311,10.065031 Z"
           sodipodi:nodetypes="ccccccc" />
        <path
           id="path41"
           style="opacity:0.903255;fill:#666666;fill-opacity:1;stroke-width:0.0697539"
           d="m 7.4343759,9.3942761 -0.2562626,0.1037524 0.021719,0.8843105 -0.332125,0.05414 0.2151564,0.920138 0.4043198,0.0568 z" />
        <path
           id="path42"
           style="opacity:0.903255;fill:#666666;fill-opacity:1;stroke-width:0.0697539"
           d="m 2.2477604,10.611062 c -0.016504,0.06023 -0.033466,0.120268 -0.050171,0.180439 l 0.1117639,-0.03707 z" />
        <path
           id="path43"
           style="opacity:0.903255;fill:#b3b3b3;stroke-width:0.0697539"
           d="m 1.9645233,11.613302 c -0.046192,0.158186 -0.093325,0.316337 -0.1405038,0.474235 0.01669,0.0026 0.033699,0.0029 0.051319,4.4e-5 l 0.072934,-0.01189 c 0.088932,-0.0145 0.148458,-0.09783 0.1339598,-0.186767 l -0.025109,-0.15403 c -0.00909,-0.05573 -0.045018,-0.09979 -0.092595,-0.121561 z" />
        <path
           id="path46"
           style="opacity:0.903255;fill:#b3b3b3;stroke-width:0.0697539"
           d="m 5.7911213,10.961513 0.072469,-0.01181 c 0.088933,-0.0145 0.1721992,0.04543 0.1866968,0.134359 l 0.025088,0.153897 c 0.014498,0.08894 -0.045427,0.172199 -0.1343595,0.186696 l -0.072469,0.01181 C 5.7796132,11.450963 5.696347,11.39104 5.6818494,11.302107 L 5.6567618,11.14821 c -0.014498,-0.08894 0.045427,-0.172199 0.1343595,-0.186697 z" />
      </g>
      <g
         id="g66"
         transform="rotate(11.553707,-106.02189,60.167957)">
        <path
           style="fill:#4d4d4d;fill-opacity:1;stroke-width:0.0697539"
           d="m -16.680482,-4.25423 0.0026,0.166008 c 0,0 -0.775293,0.06279 -0.469029,-0.06992 0.234342,-0.101545 0.466416,-0.09609 0.466416,-0.09609 z"
           id="path49"
           sodipodi:nodetypes="ccscc" />
        <path
           id="path50"
           style="fill:#666666;stroke-width:0.0697539"
           d="m -20.373277,-6.5675807 0.503616,1.5063021 0.414464,-0.034093 0.194404,1.1006092 0.465453,0.039876 0.35188,-0.9517242 c 0,0 3.09981,0.2903115 4.122902,0.9562991 0.452162,0.2943394 5.3781384,0.1171991 10.1500409,0.086539 0.2869768,-0.00184 0.5583065,-0.00147 0.8449154,-0.00289 -0.064103,-0.039319 -0.057959,-0.105913 -0.011524,-0.2550407 -0.00407,-0.00476 4.952e-4,-0.013629 0.0073,-0.023645 0.011881,-0.037397 0.021328,-0.068832 0.036799,-0.1167054 0.00966,-0.031261 0.021147,-0.061724 0.031124,-0.092865 0.011972,-0.041745 0.024225,-0.08326 0.036156,-0.125013 0.026209,-0.091728 0.052629,-0.1838227 0.078689,-0.2755925 0.00537,-0.019282 0.010289,-0.038249 0.015667,-0.05753 0.00648,-0.2343495 0.039915,-0.4688735 0.071499,-0.7029411 0.065235,-0.379393 0.1426448,-0.756343 0.2269641,-1.1318939 -0.1196801,-0.075572 -0.2354717,-0.2022017 -0.3305351,-0.3913123 -0.00915,-0.018197 -0.022646,-0.03674 -0.036607,-0.052646 -0.0788,-0.096951 -0.1599862,-0.1915042 -0.2329258,-0.2931172 -0.00169,-0.00243 -0.00357,-0.00541 -0.0053,-0.00788 l -0.2379638,-4.064e-4 -0.1536177,0.5773166 -0.583136,0.026906 -0.6051595,-2.4339022 -2.5691608,0.3047352 -0.042544,0.4575589 -0.8741572,0.037873 -0.1346294,0.3476854 -0.8592074,0.2167878 -0.5155297,0.3859935 -4.836757,0.05149 -0.45132,1.0664664 z m 18.9721382,-2.6848251 c 0.00167,0.00337 0.00354,0.00664 0.00521,0.010011 0.038822,0.00553 0.077719,0.010963 0.1164198,0.017342 0.00337,-0.00888 0.00686,-0.017593 0.010428,-0.026395 z m -1.6435404,1.9531542 c 0.00697,3.096e-4 0.014211,3.11e-4 0.021183,4.166e-4 0.00117,-6.84e-5 0.00198,-4.7e-5 0.00314,-1.147e-4 -0.0025,-7.21e-5 -0.005,-5.298e-4 -0.0075,-5.762e-4 -0.00554,-9.29e-5 -0.022364,-2.18e-5 -0.016822,2.743e-4 z" />
        <path
           id="path51"
           style="opacity:0.893555;fill:#ff0000;stroke-width:0.0697539"
           d="m -3.1089927,-5.1124775 -16.3462893,0.017053 0.194304,1.100708 0.465604,0.039791 0.351917,-0.9523966 c 0,0 3.099653,0.2910602 4.122746,0.9570475 0.452162,0.2943397 5.3783832,0.1169596 10.1502844,0.0863 0.286977,-0.00184 0.5583008,-0.00116 0.8449097,-0.00258 -0.064103,-0.039319 -0.058321,-0.1061536 -0.011886,-0.2552815 -0.00407,-0.00476 9.475e-4,-0.013755 0.00775,-0.023771 0.011881,-0.037397 0.021219,-0.068399 0.03669,-0.116272 0.00966,-0.031261 0.021029,-0.061877 0.031006,-0.093018 0.011972,-0.041745 0.024243,-0.083304 0.036174,-0.125057 0.026209,-0.091728 0.052488,-0.1836655 0.078548,-0.2754354 0.00537,-0.019282 0.010642,-0.038597 0.01602,-0.057878 0.00276,-0.099765 0.011953,-0.1994563 0.022221,-0.2992065 z m -16.7715863,0.01757 0.01085,0.03359 0.408761,-0.03359 z" />
        <path
           id="path52"
           style="opacity:0.893555;fill:#800000;stroke-width:0.0697539"
           d="m -14.619918,-4.1078877 c 0.110765,0.05022 0.214163,0.1022542 0.299207,0.1576131 0.452162,0.2943397 5.3783882,0.1169596 10.1502844,0.0863 0.2869767,-0.00184 0.5583011,-0.00116 0.8449097,-0.00258 -0.056506,-0.03466 -0.055725,-0.095746 -0.023254,-0.2108398 z" />
        <path
           id="path53"
           style="opacity:0.893555;fill:#999999;stroke-width:0.0697539"
           d="m -7.5873406,-8.918194 -0.042441,0.4580652 -0.8742607,0.037367 -0.1345259,0.3481917 -0.8593109,0.2162815 -0.5161399,0.3855907 -4.836147,0.051893 -0.451642,1.0623125 2.370106,0.3599329 c 3.2084261,-0.3476873 6.6674235,-0.29337 10.0309862,-0.3358749 0.022027,-0.1041139 0.046538,-0.2078629 0.069718,-0.3117351 -0.1204412,-0.075399 -0.2368364,-0.2027861 -0.332468,-0.393027 -0.00915,-0.018197 -0.022646,-0.03674 -0.036607,-0.052646 -0.0788,-0.096951 -0.1599862,-0.1915042 -0.2329258,-0.2931172 -0.00169,-0.00243 -0.00357,-0.00541 -0.0053,-0.00788 l -0.2379638,-4.064e-4 -0.1536177,0.5773166 -0.583136,0.026906 -0.6051595,-2.4339022 z m 6.1862018,-0.3342118 c 0.00167,0.00337 0.00354,0.00664 0.00521,0.010011 0.038822,0.00553 0.077719,0.010963 0.1164198,0.017342 0.00337,-0.00888 0.00686,-0.017593 0.010428,-0.026395 z m -1.6435404,1.9531542 c 0.00697,3.096e-4 0.014211,3.11e-4 0.021183,4.166e-4 0.00117,-6.84e-5 0.00198,-4.7e-5 0.00314,-1.147e-4 -0.0025,-7.21e-5 -0.005,-5.298e-4 -0.0075,-5.762e-4 -0.00554,-9.29e-5 -0.022364,-2.18e-5 -0.016822,2.743e-4 z" />
        <path
           id="path54"
           style="fill:#ef0b0b;stroke-width:0.0697539"
           d="m -16.694971,-4.9733491 h 0.192795 v 0.8847446 h -0.192795 z" />
        <path
           id="path55"
           style="fill:#ef0b0b;stroke-width:0.0697539"
           transform="rotate(-6.5534215)"
           d="m -16.05312,-6.0815825 h 1.83283 v 0.081131 h -1.83283 z" />
        <path
           id="path56"
           style="fill:#4d4d4d;stroke-width:0.0697539"
           d="m -17.009906,-4.2909398 a 0.07735326,0.16820337 0 0 1 -0.07735,0.1682034 0.07735326,0.16820337 0 0 1 -0.07735,-0.1682034 0.07735326,0.16820337 0 0 1 0.07735,-0.1682034 0.07735326,0.16820337 0 0 1 0.07735,0.1682034 z" />
        <path
           id="path57"
           style="fill:#4d4d4d;stroke-width:0.0697539"
           d="m -17.003123,-3.9516642 a 0.07735326,0.16820337 0 0 1 -0.07735,0.1682034 0.07735326,0.16820337 0 0 1 -0.07735,-0.1682034 0.07735326,0.16820337 0 0 1 0.07735,-0.1682034 0.07735326,0.16820337 0 0 1 0.07735,0.1682034 z" />
        <path
           id="path60"
           style="opacity:0.903255;fill:#666666;fill-opacity:1;stroke-width:0.0697539"
           d="m -3.6762666,-7.3932492 -0.043386,0.1644677 0.3786798,-0.036272 c -0.031466,-0.039379 -0.062552,-0.078846 -0.092026,-0.119907 -0.00169,-0.00243 -0.00357,-0.00541 -0.0053,-0.00788 z m 0.6315874,0.093998 c 0.00697,3.096e-4 0.014211,3.11e-4 0.021183,4.166e-4 0.00117,-6.84e-5 0.00198,-4.7e-5 0.00314,-1.147e-4 -0.0025,-7.21e-5 -0.005,-5.298e-4 -0.0075,-5.762e-4 -0.00554,-9.29e-5 -0.022364,-2.18e-5 -0.016822,2.743e-4 z" />
        <path
           id="path62"
           style="opacity:0.903255;fill:#666666;fill-opacity:1;stroke-width:0.0697539"
           d="m -5.01792,-9.222689 -2.569588,0.30422 -0.0421,0.458169 -0.874513,0.03733 -0.134467,0.348225 -0.858982,0.21621 -0.516206,0.386099 -4.836728,0.0515 -0.153405,0.36253 4.78523,-0.14414 1.602979,-0.671791 1.138134,-0.39005 0.250542,-0.383238 2.261826,-0.363075 z" />
        <path
           id="path63"
           style="opacity:0.903255;fill:#b3b3b3;stroke-width:0.0697539"
           d="m -5.6078784,-8.2462482 h 0.073426 c 0.090106,0 0.1626471,0.072541 0.1626471,0.1626471 v 0.1559284 c 0,0.090106 -0.072541,0.1626471 -0.1626471,0.1626471 h -0.073426 c -0.090106,0 -0.1626471,-0.072541 -0.1626471,-0.1626471 v -0.1559284 c 0,-0.090107 0.072541,-0.1626471 0.1626471,-0.1626471 z" />
        <path
           id="path64"
           style="opacity:0.903255;fill:#b3b3b3;stroke-width:0.0697539"
           d="m -6.1659075,-8.2462482 h 0.073426 c 0.090106,0 0.1626471,0.072541 0.1626471,0.1626471 v 0.1559284 c 0,0.090106 -0.072541,0.1626471 -0.1626471,0.1626471 h -0.073426 c -0.090107,0 -0.1626471,-0.072541 -0.1626471,-0.1626471 v -0.1559284 c 0,-0.090107 0.072541,-0.1626471 0.1626471,-0.1626471 z" />
        <path
           id="path65"
           style="opacity:0.903255;fill:#b3b3b3;stroke-width:0.0697539"
           d="m -6.7239367,-8.2462482 h 0.073426 c 0.090107,0 0.1626471,0.072541 0.1626471,0.1626471 v 0.1559284 c 0,0.090106 -0.072541,0.1626471 -0.1626471,0.1626471 h -0.073426 c -0.090107,0 -0.1626471,-0.072541 -0.1626471,-0.1626471 v -0.1559284 c 0,-0.090107 0.072541,-0.1626471 0.1626471,-0.1626471 z" />
      </g>
    </g>
    <g
       id="g79"
       transform="matrix(0.93796052,0.12818503,-0.13540494,0.99079034,-35.614545,-2.4479867)"
       inkscape:export-filename="2.png"
       inkscape:export-xdpi="96"
       inkscape:export-ydpi="96">
      <g
         id="g9"
         transform="matrix(0.18381296,0.01471691,-0.02266172,0.28304306,48.497202,-3.9475697)">
        <path
           id="path1"
           style="opacity:1;fill:#4d4d4d;fill-opacity:1;stroke-width:3.96875"
           d="m 35.879219,3.8319934 -13.712102,2.1493263 -1.6394,3.0884055 -4.052258,0.6970296 -0.543664,2.8281572 -7.1208774,0.618773 -4.1475398,5.996638 -20.6816508,0.504118 -2.255926,3.90555 -34.36573,-1.617909 0.554874,5.843765 h 17.195476 v 3.725378 l -2.47171,0.320306 -0.04484,0.293007 -2.065363,0.196551 -0.02242,-0.380363 c 0,0 -0.113355,0.03421 -2.939709,0.549616 0.0424,-0.1923 0.06709,-0.424901 0.06726,-0.664271 -4e-5,-0.618258 -0.149364,-1.120311 -0.333484,-1.121071 -0.18432,-2e-4 -0.333445,0.502133 -0.333485,1.121071 0,0.28091 0.03027,0.551947 0.08687,0.758907 -0.11054,0.0201 -0.153942,0.02774 -0.271832,0.04914 -1.778896,0.322768 -1.02071,0.488995 0.266228,0.575095 -0.0526,0.20365 -0.08123,0.463808 -0.08127,0.733428 -4e-5,0.619138 0.149105,1.121271 0.333485,1.121071 0.18418,-7.6e-4 0.333524,-0.502623 0.333484,-1.121071 -2e-4,-0.25685 -0.02736,-0.50513 -0.07566,-0.70431 1.375576,0.0656 3.023781,0.0637 3.023781,0.0637 l -0.01401,-0.23113 1.908428,-0.181992 -0.05605,0.354884 6.027944,-0.780746 0.02242,-0.145593 17.049752,-1.62155 0.05044,2.600667 h 74.919141 c -0.01667,-0.09214 -0.03024,-0.184369 -0.03363,-0.278448 C 60.195521,32.853392 59.951279,32.621225 59.764,32.364714 59.425625,31.934959 59.056962,31.515358 58.757942,31.07257 58.473942,30.685862 58.205268,30.293984 57.886398,29.918741 57.533658,29.482415 57.184833,29.044024 56.8299,28.608394 56.161284,27.783411 55.464763,26.96703 54.744921,26.1606 54.050832,25.398984 53.337323,24.646687 52.62351,23.892979 52.040804,23.219919 51.549346,22.519725 51.079392,21.81099 50.492093,20.86862 50.032546,19.901112 49.65858,18.913676 c -0.494102,-1.222041 -0.937846,-2.455538 -1.538513,-3.65804 -0.606514,-1.246469 -1.233678,-2.488944 -1.919639,-3.718098 -0.01553,-0.02947 -0.02662,-0.05969 -0.04204,-0.08918 l -1.193818,6.779204 -6.739753,0.163793 z m 20.852598,0.9936767 c 0.0045,0.00613 0.0095,0.01207 0.01401,0.018199 l -0.0056,-0.018199 z M 72.371965,15.137341 c 0.108529,0.241926 0.226118,0.483156 0.339089,0.724328 0.09696,0.196351 0.209684,0.388837 0.311066,0.584195 0.1286,0.04046 0.257994,0.07983 0.38673,0.120115 -0.343024,-0.476514 -0.695564,-0.951097 -1.036885,-1.428638 z M -33.687353,27.845847 h 19.148742 l 0.04484,2.158426 -16.915237,1.60881 0.07567,-0.502298 -2.354009,0.303927 z" />
        <path
           id="path6"
           style="fill:#b3b3b3;fill-opacity:1;stroke-width:3.96875"
           d="m 35.879219,3.8319934 -13.712102,2.1493263 -1.6394,3.0884055 -4.052258,0.6970296 -0.543664,2.8281572 -7.1208774,0.618773 -4.1475398,5.996638 -9.2787191,0.22567 54.8091783,0.720689 c -0.192677,-0.411337 -0.376606,-0.824096 -0.535257,-1.243006 -0.494102,-1.222042 -0.937845,-2.455536 -1.538513,-3.65804 -0.606514,-1.24647 -1.233678,-2.488942 -1.919639,-3.718098 -0.01553,-0.02947 -0.02662,-0.05969 -0.04204,-0.08918 l -1.193818,6.779204 -6.739753,0.163793 z m 20.852598,0.9936767 c 0.0045,0.00613 0.0095,0.01207 0.01401,0.018199 l -0.0056,-0.018199 z M 72.371965,15.137341 c 0.108529,0.241926 0.226118,0.483156 0.339089,0.724328 0.09696,0.196351 0.209684,0.388837 0.311066,0.584195 0.1286,0.04046 0.257994,0.07983 0.38673,0.120115 -0.343024,-0.476514 -0.695564,-0.951096 -1.036885,-1.428638 z" />
        <path
           id="path7"
           style="fill:#800000;fill-opacity:1;stroke-width:3.96875"
           d="m -14.510587,29.15437 0.01681,0.849903 -0.619329,0.06006 0.04764,0.747988 0.5857,-0.05642 0.05044,2.600667 h 74.919141 c -0.01667,-0.09214 -0.03024,-0.184369 -0.03363,-0.278448 -0.26067,-0.224731 -0.504912,-0.456898 -0.692191,-0.713409 -0.338375,-0.429755 -0.707038,-0.849356 -1.006058,-1.292144 -0.284,-0.386708 -0.552674,-0.778586 -0.871544,-1.153829 -0.205786,-0.254539 -0.41142,-0.509375 -0.616526,-0.764367 z" />
      </g>
      <g
         id="g72"
         transform="matrix(0.17799407,-0.04818615,0.07419909,0.27408288,49.549325,-1.5172626)">
        <path
           id="path70"
           style="opacity:1;fill:#4d4d4d;fill-opacity:1;stroke-width:3.96875"
           d="M 56.740224,4.825405 47.25693,5.2057684 44.964574,18.227301 38.224821,18.391094 37.7316,15.329987 c -0.148253,0.111267 -0.238953,0.174346 -0.333484,0.23295 -0.02137,0.01661 -0.02792,0.02319 -0.04204,0.03458 -0.09898,0.0675 -0.12792,0.08589 -0.173748,0.116475 -0.541813,0.936289 -1.081174,1.873962 -1.608573,2.813597 -0.0387,0.06835 -0.212142,0.414495 -0.319473,0.600574 -0.119337,0.36395 -0.237135,0.685631 -0.142922,0.305746 -0.249119,0.553987 -0.541027,1.098637 -0.938801,1.61609 -0.429937,0.517272 -0.642161,1.118506 -1.008861,1.654308 -0.540755,0.953588 -1.095573,1.903441 -1.572142,2.871835 -0.710996,1.359097 -1.455647,2.709944 -2.396045,4.011105 -0.984375,1.319216 -2.139271,2.569808 -3.438535,3.769056 H 116.3471 L 131.01762,16.128932 85.128452,20.298371 79.383549,5.2075884 63.544431,5.4587374 61.145584,12.2798 59.427717,12.640145 Z M 37.274811,15.641194 c -0.02068,0.01297 -0.04384,0.02885 -0.07006,0.0455 -0.0039,0.0033 -0.0078,0.0063 -0.01121,0.0091 -0.0013,0.0023 -0.0015,0.005 -0.0028,0.0073 0.0074,-0.0042 0.01517,-0.0095 0.02242,-0.01456 0.02155,-0.01511 0.04094,-0.03171 0.06165,-0.04732 z" />
        <path
           id="path71"
           style="fill:#b3b3b3;fill-opacity:1;stroke-width:3.96875"
           d="M 56.740224,4.825405 47.25693,5.2057684 44.964574,18.227301 38.224821,18.391094 37.7316,15.329987 c -0.148253,0.111267 -0.238953,0.174346 -0.333484,0.23295 -0.02137,0.01661 -0.02792,0.02319 -0.04204,0.03458 -0.09898,0.0675 -0.12792,0.08589 -0.173748,0.116475 -0.541813,0.936289 -1.081174,1.873962 -1.608573,2.813597 -0.0387,0.06835 -0.212142,0.414495 -0.319473,0.600574 -0.119337,0.36395 -0.237135,0.685631 -0.142922,0.305746 -0.07884,0.17533 -0.17401,0.347605 -0.263425,0.520498 l 50.501902,0.664271 1.61698,-0.485919 -1.838369,0.165613 L 79.383549,5.2075884 63.544431,5.4587374 61.145584,12.2798 59.427717,12.640145 Z M 37.274811,15.641194 c -0.02068,0.01297 -0.04384,0.02885 -0.07006,0.0455 -0.0039,0.0033 -0.0078,0.0063 -0.01121,0.0091 -0.0013,0.0023 -0.0015,0.005 -0.0028,0.0073 0.0074,-0.0042 0.01517,-0.0095 0.02242,-0.01456 0.02155,-0.01511 0.04094,-0.03171 0.06165,-0.04732 z" />
        <path
           id="path72"
           style="fill:#800000;fill-opacity:1;stroke-width:3.96875"
           d="M 121.19523,27.66359 63.939568,29.154105 H 29.475754 c -0.09821,0.143183 -0.177572,0.291088 -0.280239,0.433141 -0.984377,1.319218 -2.139269,2.569806 -3.438535,3.769056 h 90.59012 z" />
      </g>
    </g>
  </g>
</svg>
