<?xml version="1.0" encoding="UTF-8" standalone="no"?>
<!-- Created with Inkscape (http://www.inkscape.org/) -->

<svg
   width="256"
   height="256"
   viewBox="0 0 67.733332 67.733334"
   version="1.1"
   id="svg1"
   inkscape:version="1.3.2 (091e20ef0f, 2023-11-25, custom)"
   sodipodi:docname="controls.svg"
   inkscape:export-filename="../assets/control_fire.png"
   inkscape:export-xdpi="96"
   inkscape:export-ydpi="96"
   xmlns:inkscape="http://www.inkscape.org/namespaces/inkscape"
   xmlns:sodipodi="http://sodipodi.sourceforge.net/DTD/sodipodi-0.dtd"
   xmlns:xlink="http://www.w3.org/1999/xlink"
   xmlns="http://www.w3.org/2000/svg"
   xmlns:svg="http://www.w3.org/2000/svg">
  <sodipodi:namedview
     id="namedview1"
     pagecolor="#ffffff"
     bordercolor="#000000"
     borderopacity="0.25"
     inkscape:showpageshadow="2"
     inkscape:pageopacity="0.0"
     inkscape:pagecheckerboard="0"
     inkscape:deskcolor="#d1d1d1"
     inkscape:document-units="px"
     inkscape:zoom="2.2363586"
     inkscape:cx="107.54089"
     inkscape:cy="100.38641"
     inkscape:window-width="1898"
     inkscape:window-height="1144"
     inkscape:window-x="0"
     inkscape:window-y="0"
     inkscape:window-maximized="1"
     inkscape:current-layer="layer1" />
  <defs
     id="defs1">
    <linearGradient
       inkscape:collect="always"
       xlink:href="#linearGradient26"
       id="linearGradient38"
       gradientUnits="userSpaceOnUse"
       gradientTransform="matrix(1.6316273,0,0,2.8927602,-108.76018,-25.414298)"
       x1="53.075283"
       y1="19.647635"
       x2="53.075863"
       y2="19.476711" />
    <linearGradient
       id="linearGradient26"
       inkscape:collect="always">
      <stop
         style="stop-color:#272727;stop-opacity:1;"
         offset="0"
         id="stop26" />
      <stop
         style="stop-color:#444444;stop-opacity:1;"
         offset="1"
         id="stop27" />
    </linearGradient>
    <linearGradient
       inkscape:collect="always"
       xlink:href="#linearGradient26"
       id="linearGradient37"
       gradientUnits="userSpaceOnUse"
       gradientTransform="matrix(1.6316273,0,0,2.8927602,-108.76018,-21.40558)"
       x1="53.075283"
       y1="19.647635"
       x2="53.075863"
       y2="19.476711" />
    <linearGradient
       inkscape:collect="always"
       xlink:href="#linearGradient26"
       id="linearGradient36"
       gradientUnits="userSpaceOnUse"
       gradientTransform="matrix(1.6316273,0,0,2.8927602,-108.76017,-23.326324)"
       x1="53.075283"
       y1="19.647635"
       x2="53.075863"
       y2="19.476711" />
  </defs>
  <g
     inkscape:label="Layer 1"
     inkscape:groupmode="layer"
     id="layer1">
    <circle
       style="fill:#333333;fill-opacity:0.69927758;stroke:#1a1a1a;stroke-width:1.11310208;stroke-dasharray:none;stroke-opacity:1"
       id="path1"
       cx="33.866669"
       cy="33.866669"
       r="33.310181" />
    <path
       id="rect1"
       style="fill:#004455;fill-opacity:0.699278;stroke:#00222b;stroke-width:1.1131"
       d="m -58.122396,58.780458 v 4.289144 c 0,0 -5.819082,0 -8.728623,0 -2.845835,0 -8.537507,0 -8.537507,0 -0.07056,0 -0.127124,0.05655 -0.127124,0.127124 v 9.073348 c 0,0.07056 0.05656,0.127124 0.127124,0.127124 h 8.583258 8.682872 v 4.289144 L -42.615849,67.7334 Z"
       sodipodi:nodetypes="ccsssssccccc" />
    <g
       id="g5"
       transform="translate(-24.73952,-0.45860803)">
      <path
         id="path2"
         style="fill:#004455;fill-opacity:0.699278;stroke:#00222b;stroke-width:1.1131"
         d="m -23.182702,9.2380433 -5.157802,4.0254347 c 0,0 -7.722994,-9.0186477 -13.106236,-9.5911317 -3.763409,-0.400222 -10.367781,4.628171 -10.367781,4.628171 -0.06443,0.02876 -0.138805,0.0096 -0.162983,0.07588 l -3.108398,8.5242877 c -0.02417,0.06629 0.0096,0.138809 0.07588,0.162983 0,0 6.616001,-4.532858 10.410765,-4.612498 4.138983,-0.08686 11.556188,4.550061 11.556188,4.550061 l -5.474789,4.527788 15.926273,5.568737 z"
         sodipodi:nodetypes="ccassssacccc" />
      <g
         id="g4">
        <path
           id="rect31"
           style="fill:#333333;stroke-width:0.260155"
           d="m -23.387468,30.691667 h 2.758 c 0.0551,0 0.0995,0.0444 0.0995,0.09954 v 4.585569 c 0,0.05515 -0.0444,0.09955 -0.0995,0.09955 h -2.758 c -0.0551,0 -0.0995,-0.0444 -0.0995,-0.09955 v -4.585569 c 0,-0.05515 0.0444,-0.09954 0.0995,-0.09954 z" />
        <path
           id="rect32"
           style="fill:url(#linearGradient38);stroke-width:0.862224"
           d="m -23.417798,30.874267 h 2.81866 c 0.0721,0 0.13012,0.05803 0.13012,0.13012 v 0.171461 c 0,0.07209 -0.058,0.13012 -0.13012,0.13012 h -2.81866 c -0.0721,0 -0.13012,-0.05803 -0.13012,-0.13012 v -0.171461 c 0,-0.07209 0.058,-0.13012 0.13012,-0.13012 z" />
        <path
           id="rect33"
           style="fill:url(#linearGradient37);stroke-width:0.862225"
           d="m -23.417798,34.882991 h 2.81866 c 0.0721,0 0.13012,0.05803 0.13012,0.13012 v 0.171461 c 0,0.07209 -0.058,0.13012 -0.13012,0.13012 h -2.81866 c -0.0721,0 -0.13012,-0.05803 -0.13012,-0.13012 v -0.171461 c 0,-0.07209 0.058,-0.13012 0.13012,-0.13012 z" />
        <path
           id="rect34"
           style="fill:url(#linearGradient36);stroke-width:0.862225"
           d="m -23.417798,32.962247 h 2.81866 c 0.0721,0 0.13012,0.05803 0.13012,0.13012 v 0.171461 c 0,0.07209 -0.058,0.13012 -0.13012,0.13012 h -2.81866 c -0.0721,0 -0.13012,-0.05803 -0.13012,-0.13012 v -0.171461 c 0,-0.07209 0.058,-0.13012 0.13012,-0.13012 z" />
        <path
           id="circle34"
           style="fill:#1a1a1a;stroke-width:0.647552"
           d="m -21.541728,31.991626 a 0.46674645,0.46674645 0 0 1 -0.46675,0.466746 0.46674645,0.46674645 0 0 1 -0.46674,-0.466746 0.46674645,0.46674645 0 0 1 0.46674,-0.466747 0.46674645,0.46674645 0 0 1 0.46675,0.466747 z" />
        <path
           id="circle35"
           style="fill:#4d4d4d;stroke-width:0.557522"
           d="m -21.606618,31.991626 a 0.40185472,0.40185472 0 0 1 -0.40186,0.401855 0.40185472,0.40185472 0 0 1 -0.40185,-0.401855 0.40185472,0.40185472 0 0 1 0.40185,-0.401855 0.40185472,0.40185472 0 0 1 0.40186,0.401855 z" />
        <path
           id="circle36"
           style="fill:#1a1a1a;stroke-width:0.452344"
           d="m -21.682428,31.991626 a 0.32604361,0.32604361 0 0 1 -0.32605,0.326043 0.32604361,0.32604361 0 0 1 -0.32604,-0.326043 0.32604361,0.32604361 0 0 1 0.32604,-0.326044 0.32604361,0.32604361 0 0 1 0.32605,0.326044 z" />
        <path
           id="rect36"
           style="fill:#4d4d4d;stroke-width:0.565106"
           d="m -22.008478,31.624568 c 0.0141,0 0.0254,0.01162 0.0254,0.02606 v 0.364839 c 0,0.01444 -0.0113,0.02606 -0.0254,0.02606 -0.0141,0 -0.0254,-0.01162 -0.0254,-0.02606 v -0.364839 c 0,-0.01444 0.0113,-0.02606 0.0254,-0.02606 z" />
      </g>
    </g>
    <g
       id="g6"
       transform="translate(-7.7728673,-37.848535)">
      <path
         style="fill:#4d4d4d;fill-opacity:1;stroke-width:0.0697539"
         d="m -25.940899,33.052019 0.0026,0.166008 c 0,0 -0.775293,0.06279 -0.469029,-0.06992 0.234342,-0.101545 0.466416,-0.09609 0.466416,-0.09609 z"
         id="path5"
         sodipodi:nodetypes="ccscc" />
      <path
         style="fill:#666666;stroke-width:0.0697539"
         d="m -29.633333,30.738446 0.50322,1.506435 0.414448,-0.03425 0.194331,1.100853 0.465616,0.03989 0.351865,-0.952186 c 0,0 3.099495,0.290628 4.122589,0.956617 0.452164,0.29434 5.37855,0.117211 10.150462,0.08655 6.025296,-0.03871 12.116115,0.01832 12.116115,0.01832 l 0.398869,0.310633 1.882094,0.284243 1.243726,-0.02062 0.162922,-0.177736 0.06713,-0.169695 -0.03571,-0.153877 c -1.059887,-1.831428 2.27462,-3.578203 1.778242,-3.718146 -0.848089,-0.239169 -9.196552,0.699342 -9.196552,0.699342 l -0.393228,-1.111061 0.193526,-0.09831 -0.184393,-0.170025 -0.899002,-0.240126 -0.179155,-1.089841 -1.482665,-0.146922 -1.304181,-3.942092 -0.547808,0.01732 1.176329,3.972714 -0.583666,0.132282 -0.120869,0.876306 h -0.336419 l 0.07145,1.049549 h -0.446414 l -0.273835,-1.708288 -1.687608,-0.01358 -0.421298,1.871195 -0.503488,-0.0011 -0.153368,0.577489 -0.583128,0.02726 -0.605155,-2.434042 -2.56955,0.304187 -0.04217,0.458096 -0.874423,0.03734 -0.134568,0.348238 -0.858979,0.216222 -0.516113,0.386109 -4.836794,0.05144 -0.451246,1.066738 z"
         id="path12"
         sodipodi:nodetypes="ccccccsscccccccsccccccccccccccccccccccccccccccc" />
      <path
         id="path13"
         style="opacity:0.893555;fill:#ff0000;stroke-width:0.0697539"
         d="m 2.321059,32.178743 -31.036558,0.03229 0.194141,1.100396 0.465662,0.03992 0.351903,-0.952169 c 0,0 3.099474,0.290676 4.122568,0.956664 0.452163,0.29434 5.378519,0.11717 10.150425,0.08651 6.025292,-0.03871 12.116071,0.01839 12.116071,0.01839 l 0.398906,0.310623 1.882131,0.284193 1.243718,-0.02057 0.162941,-0.17779 0.06703,-0.169753 -0.03569,-0.153813 c 0,0 -0.33972,-0.535056 -0.08324,-1.354889 z m -31.042416,0.03242 -0.419886,4.22e-4 0.01117,0.03324 z" />
      <path
         id="path14"
         style="opacity:0.893555;fill:#800000;stroke-width:0.0697539"
         d="m -23.880541,33.198486 c 0.110765,0.05022 0.214272,0.101996 0.299316,0.157355 0.452163,0.29434 5.378524,0.11717 10.150425,0.08651 6.025286,-0.03871 12.116071,0.01839 12.116071,0.01839 l 0.398906,0.310623 1.882131,0.284193 c 0,0 0.865591,0.149537 1.243718,-0.02057 0.07331,-0.03298 0.162941,-0.17779 0.162941,-0.17779 0,0 0.06253,-0.109084 0.06703,-0.169753 0.0039,-0.05249 -0.03569,-0.153813 -0.03569,-0.153813 0,0 -0.05834,-0.09727 -0.108585,-0.264847 z"
         sodipodi:nodetypes="csscccscsccc" />
      <path
         id="path15"
         style="opacity:0.893555;fill:#999999;stroke-width:0.0697539"
         d="m -9.262999,23.716445 -0.547814,0.0173 1.176279,3.972706 -0.583645,0.132287 -0.120843,0.876284 h -0.336509 l 0.07153,1.049579 h -0.446451 l -0.27384,-1.70829 -1.687582,-0.01349 -0.421384,1.871095 -0.503399,-9.49e-4 -0.153405,0.577377 -0.583099,0.02725 -0.605171,-2.434031 -2.569588,0.304219 -0.0421,0.45817 -0.874513,0.03733 -0.134467,0.348225 -0.858982,0.21621 -0.516206,0.386099 -4.836728,0.0515 -0.450893,1.062662 2.369807,0.3598 c 5.576056,-0.60426 11.918129,0.01482 17.178002,-0.792936 L -5.407187,29.403713 -5.213731,29.305483 -5.39806,29.135458 -6.297097,28.89527 -6.476249,27.805501 -7.95893,27.6585 Z"
         sodipodi:nodetypes="cccccccccccccccccccccccccccccccc" />
      <rect
         style="fill:#ef0b0b;fill-opacity:1;stroke-width:0.0697539"
         id="rect16"
         width="0.19279534"
         height="0.88474458"
         x="-25.955389"
         y="32.332901" />
      <rect
         style="fill:#ef0b0b;fill-opacity:1;stroke-width:0.0697539"
         id="rect17"
         width="1.8328292"
         height="0.081130892"
         x="-29.510773"
         y="29.924015"
         transform="rotate(-6.5534215)" />
      <ellipse
         style="fill:#4d4d4d;fill-opacity:1;stroke-width:0.0697539"
         id="ellipse17"
         cx="-26.347677"
         cy="33.015308"
         rx="0.077353261"
         ry="0.16820337" />
      <ellipse
         style="fill:#4d4d4d;fill-opacity:1;stroke-width:0.0697539"
         id="ellipse18"
         cx="-26.340895"
         cy="33.354584"
         rx="0.077353261"
         ry="0.16820337" />
      <path
         style="fill:#333333;fill-opacity:1;stroke-width:0.0697539"
         d="m -8.421652,28.579887 v 0.792668 h 1.348796 l -0.06457,-0.532438 z"
         id="path18" />
      <rect
         style="fill:#949494;fill-opacity:1;stroke-width:0.0485031"
         id="rect18"
         width="2.0583048"
         height="0.22088774"
         x="-10.254759"
         y="23.547916" />
      <path
         id="path19"
         style="opacity:0.903255;fill:#666666;fill-opacity:1;stroke-width:0.0697539"
         d="m -12.011879,28.042825 -0.421384,1.871095 -0.503399,-9.49e-4 -0.04374,0.164712 1.375065,-0.131872 0.167248,-1.894466 z"
         sodipodi:nodetypes="ccccccc" />
      <path
         id="path20"
         style="opacity:0.903255;fill:#666666;fill-opacity:1;stroke-width:0.0697539"
         d="m -8.948562,27.777569 -0.269617,0.06117 -0.120843,0.876284 h -0.336509 l 0.06431,0.942768 0.389913,0.121116 z" />
      <path
         id="path21"
         style="opacity:0.903255;fill:#666666;fill-opacity:1;stroke-width:0.0697539"
         d="m -14.278337,28.08356 -2.569588,0.30422 -0.0421,0.458169 -0.874513,0.03733 -0.134467,0.348225 -0.858982,0.21621 -0.516206,0.386099 -4.836728,0.0515 -0.153405,0.36253 4.78523,-0.14414 1.602979,-0.671791 1.138134,-0.39005 0.250542,-0.383238 2.261826,-0.363075 z" />
      <rect
         style="opacity:0.903255;fill:#b3b3b3;fill-opacity:1;stroke-width:0.0697539"
         id="rect21"
         width="0.39872038"
         height="0.48122269"
         x="-15.030943"
         y="29.059999"
         ry="0.1626471" />
      <rect
         style="opacity:0.903255;fill:#b3b3b3;fill-opacity:1;stroke-width:0.0697539"
         id="rect22"
         width="0.39872038"
         height="0.48122269"
         x="-15.588972"
         y="29.059999"
         ry="0.1626471" />
      <rect
         style="opacity:0.903255;fill:#b3b3b3;fill-opacity:1;stroke-width:0.0697539"
         id="rect23"
         width="0.39872038"
         height="0.48122269"
         x="-16.147001"
         y="29.059999"
         ry="0.1626471" />
      <rect
         style="opacity:0.903255;fill:#b3b3b3;fill-opacity:1;stroke-width:0.0697539"
         id="rect24"
         width="0.39872038"
         height="0.48122269"
         x="-10.985212"
         y="29.059999"
         ry="0.1626471" />
    </g>
  </g>
</svg>
